<svg version="1.1" xmlns="http://www.w3.org/2000/svg" style="display: block;" viewBox="0 0 2048 2048" width="1024" height="1024" preserveAspectRatio="none">
<defs>
	<linearGradient id="Gradient1" gradientUnits="userSpaceOnUse" x1="1087.88" y1="796.071" x2="950.262" y2="1680.26">
		<stop class="stop0" offset="0" stop-opacity="1" stop-color="rgb(0,226,226)"/>
		<stop class="stop1" offset="1" stop-opacity="1" stop-color="rgb(0,209,243)"/>
	</linearGradient>
</defs>
<path transform="translate(0,0)" fill="url(#Gradient1)" d="M 824.588 793.454 C 909.509 791.033 999.662 795.874 1083.89 792.983 C 1082.95 828.262 1083.72 866.456 1083.86 901.865 C 1084.02 940.036 1078.57 978.548 1108.27 1006.88 C 1116.42 1014.65 1129.27 1022.97 1140.24 1025.07 C 1169.96 1030.74 1208.19 1028.57 1238.92 1028.54 L 1375.76 1028.38 C 1377.7 1108.02 1376.12 1194.77 1376.04 1274.92 C 1366.72 1271.39 1348.31 1259.03 1339.24 1253.26 C 1322.11 1242.29 1304.88 1231.47 1287.56 1220.81 L 1025.69 1057.09 C 999.351 1040.65 979.89 1032.12 948.185 1039.58 C 892.535 1052.67 865.642 1118.01 877.189 1170 C 886.112 1210.18 920.713 1226.71 952.491 1246.28 C 978.866 1259.98 1013.66 1282.84 1040.06 1298.4 L 1101.02 1334.77 C 1113.26 1342.07 1130.94 1352.04 1141.89 1360.36 C 1152.83 1368.55 1162.36 1378.48 1170.1 1389.75 C 1184.16 1410.47 1188.43 1436.68 1183.68 1461.09 C 1180.68 1476.44 1174.22 1490.9 1164.79 1503.38 C 1152.44 1519.81 1121.58 1547.39 1105.65 1563.01 C 1085.48 1582.82 1065.2 1602.53 1044.82 1622.12 C 1033.79 1632.8 1016 1650.99 1003.78 1659.31 L 862.694 1660.06 C 819.444 1660.01 779.214 1665.34 744.721 1634 C 705.839 1598.69 711.768 1553.28 711.866 1506.03 L 711.883 1413.19 L 711.817 1118.18 L 711.838 964.474 C 711.819 927.215 706.566 883.13 725.869 850.015 C 748.217 811.676 781.019 794.904 824.588 793.454 z"/>
<path transform="translate(0,0)" fill="rgb(254,191,83)" d="M 1282.62 348.712 C 1288.74 352.492 1301.51 395.62 1304.88 405.738 C 1316.26 439.757 1327.41 473.849 1338.35 508.014 C 1369.17 506.717 1405.67 508.423 1436.97 507.748 C 1448.4 507.501 1504.41 507.064 1512.75 509.414 C 1514.57 514.823 1513.16 516.243 1508.56 519.803 C 1491.87 532.715 1474.4 544.769 1457.23 557.043 L 1371.09 618.654 L 1405.34 722.605 C 1411.29 740.873 1420.35 766.51 1424.24 784.697 C 1412.69 778.918 1393.53 764.802 1382.41 756.969 C 1357.95 739.939 1333.71 722.602 1309.7 704.961 C 1302.62 699.859 1285.07 686.657 1278.18 682.841 C 1235.67 715.789 1187.7 746.496 1143.89 778.067 C 1140.3 780.66 1135.63 782.721 1131.45 784.238 C 1133.39 770.77 1143.89 739.265 1148.35 725.078 C 1159.62 688.897 1171.28 652.841 1183.34 616.915 C 1140.31 588.734 1098.42 554.142 1055.9 524.821 C 1052.01 522.138 1043.9 515.487 1043.24 510.933 L 1044.39 509.688 C 1056.89 506.78 1095.98 507.79 1110.9 507.791 L 1223.66 507.586 C 1224.34 505.195 1225.05 502.813 1225.8 500.443 C 1241.35 451.948 1258.88 402.471 1276.13 354.539 C 1277.4 351.024 1279.66 350.223 1282.62 348.712 z"/>
<path transform="translate(0,0)" fill="rgb(254,191,83)" d="M 1005.89 587.501 C 1017.04 587.692 1065.87 587.789 1067.94 600.077 C 1066.12 602.17 1059.98 604.058 1057.12 604.794 C 1020.62 614.139 984.279 622.464 948.483 634.516 C 798.335 685.066 672.964 800.406 606.598 943.848 C 586.893 986.44 574.632 1028.33 563.208 1073.59 C 561.714 1081.57 557.152 1113.75 551.553 1117.86 L 549.983 1116.77 C 548.699 1112.37 548.295 1109.45 548.077 1104.88 C 535.398 839.086 730.269 594.582 1005.89 587.501 z"/>
</svg>